<?xml version="1.0" encoding="UTF-8"?>
<svg id="Layer_2" data-name="Layer 2" xmlns="http://www.w3.org/2000/svg" viewBox="0 0 65.67 52.05">
  <defs>
    <style>
      .cls-1 {
        fill: none;
      }

      .cls-1, .cls-2 {
        stroke: var(--stroke-color);
        stroke-miterlimit: 10;
      }

      .cls-3 {
        stroke-width: 0px;
      }

      .cls-3, .cls-2 {
        fill: var(--fill-color);
      }
    </style>
  </defs>
  <g id="Layer_2-2" data-name="Layer 2">
    <g>
      <path class="cls-2" d="M1.83,50.2L26.56,13.01c1.47-2.21,3.24-4.2,5.26-5.92,10.41-9.58,21.29-8.01,23.9.14,0,0-8.4-8.13-20.14,9.94C23.83,35.24,1.83,50.2,1.83,50.2Z"/>
      <path class="cls-2" d="M44.61,22.17h0v28.94c-4.12,0-7.45-3.34-7.45-7.45,0,0,0-14.03,0-14.03,0-4.12,3.34-7.45,7.45-7.45Z"/>
      <path class="cls-2" d="M59.41,51.11v-28.94c-4.09,0-7.4,3.31-7.4,7.4,0,0,0,21.53,0,21.53h7.4Z"/>
      <path class="cls-2" d="M59.41,22.17h6.19c-6.19.1-6.19,6.1-6.19,6.1"/>
      <path class="cls-1" d="M44.61,51.11s7.57-.15,7.57-7.57"/>
      <path class="cls-2" d="M18.19,43.14h11.24c2.31,0,4.19,1.87,4.19,4.19,0,2.31-1.87,4.19-4.19,4.19,0,0-11.24,0-11.24,0-5.53-.17-5.53-8.2,0-8.37Z"/>
      <path class="cls-3" d="M65.64,7.27c-2.93,4.23-7.59,4.94-10.08-.11,0,0-.03-.04-.03-.04l.08-.05.03.04c3.66,4.97,5.69,2.35,9.93.09,0,0,.05-.02.05-.02l.05.05s-.03.04-.03.04h0Z"/>
      <path class="cls-1" d="M51.49,1.86c4.03,2.24,5.8,9.88,10.44,7.99"/>
    </g>
  </g>
</svg>